<?xml version="1.0" encoding="UTF-8" standalone="no"?>
<!DOCTYPE svg PUBLIC "-//W3C//DTD SVG 1.1//EN" "http://www.w3.org/Graphics/SVG/1.1/DTD/svg11.dtd">
<svg width="100%" height="100%" viewBox="0 0 1600 393" version="1.1" xmlns="http://www.w3.org/2000/svg" xmlns:xlink="http://www.w3.org/1999/xlink" xml:space="preserve" xmlns:serif="http://www.serif.com/" style="fill-rule:evenodd;clip-rule:evenodd;stroke-miterlimit:2;">
    <g transform="matrix(0.1,0,0,-0.1,0,393)">
        <path d="M14005,3349L13895,3160L13331,3160L13328,2463C13325,1772 13325,1764 13303,1712C13254,1592 13189,1548 13064,1548C12931,1548 12861,1605 12825,1745C12812,1795 12810,1905 12810,2482L12810,3160L12210,3160L12208,2503C12206,2141 12208,1799 12212,1743C12232,1451 12362,1171 12542,1035C12615,980 12717,930 12810,905C12883,885 13112.2,871 13234,889C13343.2,905.131 13478,971 13541,1013C13644,1081 13751,1204 13811,1322C13870,1438 13875,1491 13885,2083L13890,2390L13780,2390C13720,2390 13670,2393 13670,2396C13670,2402 14081,3107 14105,3142C14115,3157 14148,3104 14331,2783C14449,2577 14547,2403 14548,2399C14550,2394 14506,2390 14451,2390L14350,2390L14350,1998C14349,1434 14340,1368 14244,1241C14154,1121 13956,1003 13740,941L13635,910L14055,914C14286,916 14482,919 14490,922C14606,955 14667,995 14732,1082C14793,1163 14810,1235 14811,1424C14812,1512 14815,1648 14819,1725L14825,1865L14970,1872C15210,1882 15345,1935 15482,2071C15567,2154 15606,2223 15636,2340C15658,2424 15658,2600 15636,2692C15596,2864 15473,3018 15328,3078C15194,3134 15125,3142 14713,3147L14340,3152L14234,3339C14176,3441 14125,3528 14122,3532C14118,3535 14066,3453 14005,3349ZM15075,2729C15097,2723 15134,2705 15157,2688C15290,2597 15273,2385 15127,2307C15091,2289 15065,2285 14948,2282L14810,2278L14810,2740L14923,2740C14984,2740 15053,2735 15075,2729Z" style="fill:rgb(26,101,42);fill-rule:nonzero;"/>
        <path d="M10343,2103C10348,1471 10355,952 10358,948C10362,944 10455,944 10565,948L10765,955L10766,1425C10766,1923 10770,1969 10814,2066C10844,2131 10907.7,2210.5 10975,2243C11042.3,2275.5 11155,2278 11218,2261C11294,2240 11352,2172 11379,2072C11401,1993 11409,1821 11410,1433C11411,1219 11414,1023 11417,996L11423,947L11624,954C11734,958 11826,963 11828,965C11830,967 11827,1246 11822,1587C11814,2118 11810,2213 11795,2265C11731,2493 11539,2643 11295,2657C11136,2666 10993,2620 10839,2508L10763,2453L10757,2663C10753,2779 10750,2958 10750,3062L10750,3250L10335,3250L10343,2103Z" style="fill:rgb(37,45,99);fill-rule:nonzero;"/>
        <path d="M9183,2626C9097,2605 9005,2554 8943,2492C8819,2370 8774,2214 8815,2055C8861,1881 8978,1771 9278,1621C9460,1530 9530,1468 9530,1398C9530,1359 9494,1314 9446,1290C9344,1241 9180,1288 9055,1402C9022,1431 8995,1449 8990,1444C8940,1391 8750,1175 8750,1169C8750,1166 8785,1129 8829,1087C8916,1004 9024,943 9140,913C9228,890 9421,890 9510,913C9700,963 9850,1096 9901,1261C9922,1329 9926,1466 9909,1539C9883,1655 9803,1762 9683,1842C9646,1867 9534,1928 9436,1976C9241,2073 9190,2110 9190,2156C9190,2221 9247,2260 9342,2260C9417,2260 9494,2227 9579,2160L9632,2118L9756,2241C9824,2309 9880,2369 9880,2375C9880,2380 9847,2416 9807,2455C9676,2581 9524,2641 9336,2639C9280,2639 9211,2633 9183,2626Z" style="fill:rgb(37,45,99);fill-rule:nonzero;"/>
        <path d="M7295,2620C6857,2551 6567,2100 6643,1604C6693,1281 6906,1015 7195,913C7269,887 7409.55,879.85 7441.18,880.697C7472.57,881.539 7581,887 7648,912C7735,944 7812,989 7883,1049L7935,1093L7938,1006L7941,918L8138,925C8246,929 8341,933 8348,935C8362,940 8363,1138 8353,2013L8347,2590L7930,2590L7930,2410L7868,2461C7799,2516 7652,2591 7578,2609C7510,2625 7365,2630 7295,2620ZM7693,2197C7786,2153 7848,2098 7888,2022C7932,1940 7950,1861 7950,1755C7950,1598 7908,1486 7811,1390C7710,1289 7574,1245 7429,1267C7120,1315 6949,1682 7094,1985C7178,2161 7318,2244 7522,2237C7608,2233 7626,2229 7693,2197Z" style="fill:rgb(37,45,99);fill-rule:nonzero;"/>
        <path d="M5277,2595C4830,2510 4530,2168 4529,1740C4528,1485 4611,1285 4789,1109C4953,947 5139,874 5415,863C5627,855 5822,899 5976,991C6033,1025 6193,1168 6210,1200C6217,1214 6192,1235 6056,1328L5893,1439L5859,1404C5681,1220 5332,1190 5127,1341C5022,1419 4957,1539 4944,1679C4920,1932 5082,2153 5329,2206C5518,2246 5699,2206 5832,2096L5889,2049L5967,2090C6131,2178 6230,2235 6230,2243C6230,2260 6053,2428 5996,2465C5923,2512 5824,2554 5722,2581C5619,2609 5388,2616 5277,2595Z" style="fill:rgb(37,45,99);fill-rule:nonzero;"/>
        <g>
            <path d="M1900,3789C1723,3769 1500,3708 1360,3643L1285,3607L1410,3585C1479,3573 1576,3553 1625,3540C1675,3528 1722,3517 1730,3515C1787,3503 2004,3424 2100,3381C2318,3283 2492,3176 2737,2988L2879,2880L3678,2879.99L3642,2949C3507,3161 3297,3370 3073,3513C2732,3731 2296,3834 1900,3789Z" style="fill:rgb(60,116,185);fill-rule:nonzero;stroke:rgb(17,76,138);stroke-width:13.33px;"/>
            <path d="M1128,3522C975,3432 758,3236 646,3086C557,2968 470,2820 470,2788C470,2746 517,2532 555,2401C641,2105 799,1793 993,1533C1027,1487 1058,1450 1063,1450C1067,1450 1060,1471 1046,1498C1010,1569 970,1704 954,1810C861,2427 1295,3013 1920,3115C2099,3144 2288,3128 2460,3071C2507,3055 2546,3043 2547,3044C2548,3045 2490,3083 2417,3127C2054,3349 1684,3484 1310,3530C1258,3536 1205,3542 1193,3544C1181,3546 1152,3536 1128,3522Z" style="fill:rgb(36,44,98);fill-rule:nonzero;stroke:rgb(14,32,67);stroke-width:13.33px;stroke-linejoin:round;"/>
            <path d="M1965,2685L1857,2569L1864,2379L1871,2190L1647,2190C1647,2190 1434.83,2196.17 1369,2163C1307.07,2131.8 1258,2070 1252,1991C1246,1914 1263,1866 1314,1815C1371,1758 1422,1745 1558,1753C1724,1762 1867,1806 1975,1880C2000,1897 2020,1909 2020,1906C2020,1903 2004,1875 1984,1845C1908,1726 1865,1547 1872,1385C1879,1244 1928,1173 2042,1144C2139,1119 2248,1167 2294,1255C2313,1292 2315,1315 2318,1528L2321,1760L2695,1760L2915,1980L2695,2200L2605,2200C2472,2200 2324,2152 2205,2070C2180,2053 2160,2042 2160,2045C2160,2048 2180,2085 2205,2128C2274,2248 2303,2345 2308,2473L2312,2581L2200,2688C2138,2747 2080,2798 2080,2798C2080,2798 2025,2748 1965,2685ZM2290,2485C2290,2405 2281,2346 2263,2300C2260,2292 2255,2276 2253,2265C2251,2254 2226,2202 2197,2150C2093,1961 1924,1834 1713,1787C1698,1784 1709,1799 1750,1837C1814,1896 1851,1961 1869,2048C1875,2078 1880,2202 1880,2338L1880,2575L1982,2677L2079.99,2780L2187,2677L2290,2575L2290,2485ZM2790,2081L2890,1985L2791,1884L2691,1783L2443,1778C2233,1773 2186,1769 2134,1753C2041,1723 1987,1681 1913,1581C1911,1579 1907,1579 1904,1583C1900,1586 1908,1622 1920,1662C1986,1880 2144,2048 2370,2139C2440,2167 2473,2174 2555,2179C2610,2183 2663,2183 2673,2181C2682,2179 2735,2134 2790,2081Z" style="fill:rgb(36,44,98);fill-rule:nonzero;"/>
            <path d="M2790,2081L2890,1985L2791,1884L2691,1783L2443,1778C2233,1773 2186,1769 2134,1753C2041,1723 1987,1681 1913,1581C1911,1579 1907,1579 1904,1583C1900,1586 1908,1622 1920,1662C1986,1880 2144,2048 2370,2139C2440,2167 2473,2174 2555,2179C2610,2183 2663,2183 2673,2181C2682,2179 2735,2134 2790,2081Z" style="fill:rgb(60,116,185);fill-rule:nonzero;"/>
            <path d="M2290,2485C2290,2405 2282.22,2345.01 2253,2265C2235.03,2215.8 2226,2202 2197,2150C2093,1961 1924,1834 1713,1787C1698,1784 1709,1799 1750,1837C1814,1896 1851,1961 1869,2048C1875,2078 1880,2202 1880,2338L1880,2575L1982,2677L2079.99,2780L2187,2677L2290,2575L2290,2485Z" style="fill:rgb(60,116,185);fill-rule:nonzero;"/>
            <path d="M381,2605C91,1804 383,919 1090,453C1522,168 2052,80 2560,210C2715,249 2970,355 2970,380C2970,386 2951,390 2928,390C2890,390 2828,398 2710,415C2369,467 1941,632 1685,810C1646,836 1557,898 1485,946C1230,1119 927,1465 741,1795C596,2052 489,2335 435,2600C426,2647 417,2686 415,2688C414,2690 398,2653 381,2605Z" style="fill:rgb(60,116,185);fill-rule:nonzero;stroke:rgb(17,76,138);stroke-width:13.33px;stroke-linejoin:round;"/>
            <path d="M3025,1534C2740,1295 2501,1095 2495,1089C2488,1081 2523,1079 2625,1084L2765,1090L2725,1055C2662,1000 2460,904 2347,875C2119,818 1857,825 1665,896C1624,911 1667,881 1780,816C2118,622 2562,486 2973,450L3091,440L3138,472C3232,536 3317,609 3411,707C3520,821 3579,900 3639,1011L3680,1087L3819,1095L3957,1102L3830,1383C3616,1856 3565,1963 3555,1966C3550,1967 3311,1773 3025,1534Z" style="fill:rgb(26,101,42);fill-rule:nonzero;stroke:rgb(17,66,27);stroke-width:10px;stroke-linejoin:round;"/>
        </g>
    </g>
</svg>
